<svg xmlns="http://www.w3.org/2000/svg" viewBox="0 0 170.08 41.69"><defs><style>.cls-1{fill:#010101;}</style></defs><title>institut_logo</title><g id="Ebene_2" data-name="Ebene 2"><g id="Logo"><path class="cls-1" d="M11.29,15.54,8.17,40.84H0l3.12-25.3ZM8.28,0A4.71,4.71,0,0,1,13,4.76,4.72,4.72,0,0,1,8.28,9.53,4.72,4.72,0,0,1,3.52,4.76,4.71,4.71,0,0,1,8.28,0Z"/><path class="cls-1" d="M26.43,15.54,26,18.32a11.93,11.93,0,0,1,3.12-2.38,9.45,9.45,0,0,1,5-1.08c2.1,0,4.65.28,6.58,2.16a8,8,0,0,1,2.16,6,38.73,38.73,0,0,1-.4,4.82L41,40.84H32.78l1.36-11a30.12,30.12,0,0,0,.34-4.08,4.37,4.37,0,0,0-1-3.07,4.22,4.22,0,0,0-3-1.07A4.9,4.9,0,0,0,26.77,23c-1.48,1.53-1.82,4-2,5.33L23.31,40.84H15.14l3.12-25.3Z"/><path class="cls-1" d="M64.19,22.29a8,8,0,0,0-4.76-1.7,4,4,0,0,0-2.44.68,1.71,1.71,0,0,0-.57,1.25,1.54,1.54,0,0,0,.8,1.36,8.81,8.81,0,0,0,2,.68l1.87.51a9.14,9.14,0,0,1,4.37,2.38,6.38,6.38,0,0,1,1.87,4.82,8.66,8.66,0,0,1-2.38,6.24c-2.72,2.84-6.69,3.18-8.9,3.18a15.37,15.37,0,0,1-6.58-1.25,14.82,14.82,0,0,1-3.92-2.61L49,32.33a12.31,12.31,0,0,0,3.12,2.1,9.33,9.33,0,0,0,3.52.79,4.73,4.73,0,0,0,2.49-.57,1.72,1.72,0,0,0,1-1.64,1.8,1.8,0,0,0-.79-1.59,9.07,9.07,0,0,0-2-.74l-1.81-.56a10.09,10.09,0,0,1-4.25-2.27,6.42,6.42,0,0,1-1.7-4.54A8.39,8.39,0,0,1,51,17.41c2.61-2.55,6.52-2.72,8.33-2.72a13.84,13.84,0,0,1,8.34,2.55Z"/><path class="cls-1" d="M81.94,22.12,79.62,40.84H71.45l2.33-18.72h-3l.79-6.58h2.95l1-8.17h8.17l-1,8.17h5l-.8,6.58Z"/><path class="cls-1" d="M99.92,15.54,96.8,40.84H88.64l3.12-25.3ZM96.92,0a4.72,4.72,0,0,1,4.76,4.76,4.77,4.77,0,1,1-9.53,0A4.72,4.72,0,0,1,96.92,0Z"/><path class="cls-1" d="M114.55,22.12l-2.32,18.72h-8.17l2.33-18.72h-3l.79-6.58h3l1-8.17h8.17l-1,8.17h5l-.8,6.58Z"/><path class="cls-1" d="M149.72,15.54l-1.59,13.67c-.34,3-.85,6.52-3.69,9.24-3,2.9-7,3.24-9.92,3.24-2.55,0-7-.17-9.87-2.9a9.39,9.39,0,0,1-2.72-6.8,33.85,33.85,0,0,1,.28-3.58l1.53-12.87h8.17l-1.48,12.59c-.17,1.59-.28,2.16-.28,2.78a3.62,3.62,0,0,0,1.08,2.78,5.68,5.68,0,0,0,7.09-.34c.34-.34,1.3-1.53,1.64-4.54l1.59-13.27Z"/><path class="cls-1" d="M164.29,22.12,162,40.84H153.8l2.33-18.72h-2.95l.79-6.58h2.95l1-8.17h8.17l-1,8.17h5l-.8,6.58Z"/></g></g></svg>